<svg viewBox="0 0 1000 1000" xml:space="preserve" xmlns="http://www.w3.org/2000/svg" enable-background="new 0 0 1000 1000"><path d="M610.905 581.835h-458.67v44.94c0 16.56 13.43 30 30 30h428.67v-74.94zm-393.71 43.51a12.47 12.47 0 0 1-8.84 3.66h-15.24c-6.899 0-12.5-5.6-12.5-12.5 0-3.45 1.4-6.58 3.66-8.84a12.47 12.47 0 0 1 8.84-3.66h15.24c6.9 0 12.5 5.59 12.5 12.5 0 3.45-1.4 6.57-3.66 8.84zm56.5 0a12.47 12.47 0 0 1-8.84 3.66h-15.24c-6.899 0-12.5-5.6-12.5-12.5 0-3.45 1.4-6.58 3.66-8.84a12.47 12.47 0 0 1 8.84-3.66h15.24c6.9 0 12.5 5.59 12.5 12.5 0 3.45-1.4 6.57-3.66 8.84zM218.965 281.335h439.3v52.83h-439.3z" fill="" class="fill-231f20"></path><path d="M553.585 411.505c-6.9 0-12.5-5.6-12.5-12.5 0-3.45 1.4-6.58 3.659-8.84a12.49 12.49 0 0 1 8.841-3.66h117.18c6.9 0 12.5 5.59 12.5 12.5 0 3.45-1.4 6.57-3.66 8.84a12.488 12.488 0 0 1-8.84 3.66h54.23v-165.61c0-16.56-13.43-30-30-30h-512.76c-16.57 0-30 13.44-30 30v310.94h458.67v-36h-57.319c-6.9 0-12.5-5.6-12.5-12.5v-57c0-6.9 5.6-12.5 12.5-12.5h58.779c4.55-15.76 19.101-27.33 36.311-27.33h-95.091zm-217.44 96.83c0 6.9-5.6 12.5-12.5 12.5h-117.18c-6.9 0-12.5-5.6-12.5-12.5v-57c0-6.9 5.6-12.5 12.5-12.5h117.18c6.9 0 12.5 5.6 12.5 12.5v57zm-3.66-100.49a12.488 12.488 0 0 1-8.84 3.66h-117.18c-6.9 0-12.5-5.6-12.5-12.5a12.492 12.492 0 0 1 12.5-12.5h117.18c6.9 0 12.5 5.59 12.5 12.5 0 3.45-1.4 6.57-3.66 8.84zm177.22 100.49c0 6.9-5.6 12.5-12.5 12.5h-117.18c-6.9 0-12.5-5.6-12.5-12.5v-57c0-6.9 5.6-12.5 12.5-12.5h117.18c6.9 0 12.5 5.6 12.5 12.5v57zm-3.66-100.49a12.492 12.492 0 0 1-8.841 3.66h-117.18c-6.9 0-12.5-5.6-12.5-12.5 0-3.45 1.4-6.58 3.66-8.84 2.27-2.26 5.39-3.66 8.84-3.66h117.18c6.9 0 12.5 5.59 12.5 12.5a12.483 12.483 0 0 1-3.659 8.84zm-299.58-48.68c-6.9 0-12.5-5.59-12.5-12.5v-77.83c0-6.9 5.6-12.5 12.5-12.5h464.3c6.9 0 12.5 5.6 12.5 12.5v77.83c0 6.91-5.6 12.5-12.5 12.5h-464.3zM611.855 733.629c-40.487-11.052-90.824-28.343-98.24-47.464a38.047 38.047 0 0 1-1.41-4.39h-147.18c-.37 1.46-.84 2.92-1.41 4.39-8.37 21.58-71.41 40.83-113.26 51.41-23.53 5.96-42.39 23.51-50.07 46.53h413.721a37.313 37.313 0 0 1-2.15-12.5v-37.976zM636.855 771.605c0 6.9 5.6 12.5 12.5 12.5h185.91c6.91 0 12.5-5.6 12.5-12.5v-38.67h-210.91v38.67z" fill="" class="fill-231f20"></path><path d="M835.265 438.835h-185.91c-6.9 0-12.5 5.6-12.5 12.5v256.6h210.91v-256.6c0-6.9-5.59-12.5-12.5-12.5zm-34.367 227.41H683.722c-6.903 0-12.5-5.597-12.5-12.5 0-6.904 5.597-12.5 12.5-12.5h117.176c6.903 0 12.5 5.596 12.5 12.5 0 6.903-5.597 12.5-12.5 12.5zm12.5-66.22c0 6.904-5.597 12.5-12.5 12.5H683.722c-6.903 0-12.5-5.596-12.5-12.5v-57c0-6.903 5.597-12.5 12.5-12.5h117.176c6.903 0 12.5 5.597 12.5 12.5v57zm-12.5-94.5H683.722c-6.903 0-12.5-5.596-12.5-12.5 0-6.903 5.597-12.5 12.5-12.5h117.176c6.903 0 12.5 5.597 12.5 12.5 0 6.904-5.597 12.5-12.5 12.5z" fill="" class="fill-231f20"></path></svg>